<mxfile host="app.diagrams.net" modified="2024-05-15T22:36:39.710Z" agent="Mozilla/5.0 (Macintosh; Intel Mac OS X 10_15_7) AppleWebKit/605.1.15 (KHTML, like Gecko) Version/17.4.1 Safari/605.1.15" etag="rwrBtoPGV0S8hYh2Ifzd" version="24.4.2" type="github">
  <diagram name="Page-1" id="aoUeUPXH755is04ayiNx">
    <mxGraphModel dx="954" dy="675" grid="1" gridSize="10" guides="1" tooltips="1" connect="1" arrows="1" fold="1" page="1" pageScale="1" pageWidth="850" pageHeight="1100" math="0" shadow="0">
      <root>
        <mxCell id="0" />
        <mxCell id="1" parent="0" />
        <mxCell id="nmWa9q8JvF4ApZrv9RZo-6" value="Horario" style="swimlane;fontStyle=1;align=center;verticalAlign=middle;childLayout=stackLayout;horizontal=1;startSize=29;horizontalStack=0;resizeParent=1;resizeParentMax=0;resizeLast=0;collapsible=0;marginBottom=0;html=1;whiteSpace=wrap;" vertex="1" parent="1">
          <mxGeometry x="110" y="560" width="200" height="115" as="geometry" />
        </mxCell>
        <mxCell id="nmWa9q8JvF4ApZrv9RZo-7" value="-horaInicio: localDate&lt;div&gt;-horaFin: localDate&lt;/div&gt;&lt;div&gt;-horaInicioTarde:LocalDate&lt;/div&gt;&lt;div&gt;-horaFinTarde:LocalDate&amp;nbsp;&lt;/div&gt;&lt;div&gt;&lt;br&gt;&lt;/div&gt;&lt;div&gt;&lt;br&gt;&lt;/div&gt;" style="text;html=1;strokeColor=none;fillColor=none;align=center;verticalAlign=middle;spacingLeft=4;spacingRight=4;overflow=hidden;rotatable=0;points=[[0,0.5],[1,0.5]];portConstraint=eastwest;whiteSpace=wrap;" vertex="1" parent="nmWa9q8JvF4ApZrv9RZo-6">
          <mxGeometry y="29" width="200" height="61" as="geometry" />
        </mxCell>
        <mxCell id="nmWa9q8JvF4ApZrv9RZo-8" value="Get()" style="text;html=1;strokeColor=none;fillColor=none;align=left;verticalAlign=middle;spacingLeft=4;spacingRight=4;overflow=hidden;rotatable=0;points=[[0,0.5],[1,0.5]];portConstraint=eastwest;whiteSpace=wrap;" vertex="1" parent="nmWa9q8JvF4ApZrv9RZo-6">
          <mxGeometry y="90" width="200" height="25" as="geometry" />
        </mxCell>
        <mxCell id="nmWa9q8JvF4ApZrv9RZo-26" style="edgeStyle=orthogonalEdgeStyle;rounded=0;orthogonalLoop=1;jettySize=auto;html=1;exitX=0.5;exitY=0;exitDx=0;exitDy=0;" edge="1" parent="1" source="nmWa9q8JvF4ApZrv9RZo-9" target="nmWa9q8JvF4ApZrv9RZo-18">
          <mxGeometry relative="1" as="geometry" />
        </mxCell>
        <mxCell id="nmWa9q8JvF4ApZrv9RZo-9" value="Empleado" style="swimlane;fontStyle=1;align=center;verticalAlign=middle;childLayout=stackLayout;horizontal=1;startSize=29;horizontalStack=0;resizeParent=1;resizeParentMax=0;resizeLast=0;collapsible=0;marginBottom=0;html=1;whiteSpace=wrap;" vertex="1" parent="1">
          <mxGeometry x="520" y="562" width="150" height="115" as="geometry" />
        </mxCell>
        <mxCell id="nmWa9q8JvF4ApZrv9RZo-10" value="-id: String&lt;div&gt;-nombre: String&lt;/div&gt;&lt;div&gt;-horarioAdmitido: Horario&lt;/div&gt;" style="text;html=1;strokeColor=none;fillColor=none;align=center;verticalAlign=middle;spacingLeft=4;spacingRight=4;overflow=hidden;rotatable=0;points=[[0,0.5],[1,0.5]];portConstraint=eastwest;whiteSpace=wrap;" vertex="1" parent="nmWa9q8JvF4ApZrv9RZo-9">
          <mxGeometry y="29" width="150" height="61" as="geometry" />
        </mxCell>
        <mxCell id="nmWa9q8JvF4ApZrv9RZo-11" value="Get()" style="text;html=1;strokeColor=none;fillColor=none;align=left;verticalAlign=middle;spacingLeft=4;spacingRight=4;overflow=hidden;rotatable=0;points=[[0,0.5],[1,0.5]];portConstraint=eastwest;whiteSpace=wrap;" vertex="1" parent="nmWa9q8JvF4ApZrv9RZo-9">
          <mxGeometry y="90" width="150" height="25" as="geometry" />
        </mxCell>
        <mxCell id="nmWa9q8JvF4ApZrv9RZo-29" style="edgeStyle=orthogonalEdgeStyle;rounded=0;orthogonalLoop=1;jettySize=auto;html=1;" edge="1" parent="1" source="nmWa9q8JvF4ApZrv9RZo-12" target="nmWa9q8JvF4ApZrv9RZo-21">
          <mxGeometry relative="1" as="geometry">
            <Array as="points">
              <mxPoint x="310" y="431" />
            </Array>
          </mxGeometry>
        </mxCell>
        <mxCell id="nmWa9q8JvF4ApZrv9RZo-12" value="ManejadorArchivos" style="swimlane;fontStyle=1;align=center;verticalAlign=middle;childLayout=stackLayout;horizontal=1;startSize=29;horizontalStack=0;resizeParent=1;resizeParentMax=0;resizeLast=0;collapsible=0;marginBottom=0;html=1;whiteSpace=wrap;" vertex="1" parent="1">
          <mxGeometry y="360" width="230" height="142" as="geometry" />
        </mxCell>
        <mxCell id="nmWa9q8JvF4ApZrv9RZo-13" value="-lectura: fstream&lt;div&gt;-lecturaEscritura: fstream&lt;/div&gt;&lt;div&gt;-rutaEmpleados: String&lt;/div&gt;&lt;div&gt;-rutaAccesos:String&lt;/div&gt;" style="text;html=1;strokeColor=none;fillColor=none;align=center;verticalAlign=middle;spacingLeft=4;spacingRight=4;overflow=hidden;rotatable=0;points=[[0,0.5],[1,0.5]];portConstraint=eastwest;whiteSpace=wrap;" vertex="1" parent="nmWa9q8JvF4ApZrv9RZo-12">
          <mxGeometry y="29" width="230" height="63" as="geometry" />
        </mxCell>
        <mxCell id="nmWa9q8JvF4ApZrv9RZo-14" value="+cargarEmpleados():bool&lt;div&gt;+registrarIngreso(String id, boolean estadoAcceso):bool&lt;br&gt;&lt;div&gt;&lt;br&gt;&lt;/div&gt;&lt;/div&gt;" style="text;html=1;strokeColor=none;fillColor=none;align=left;verticalAlign=middle;spacingLeft=4;spacingRight=4;overflow=hidden;rotatable=0;points=[[0,0.5],[1,0.5]];portConstraint=eastwest;whiteSpace=wrap;" vertex="1" parent="nmWa9q8JvF4ApZrv9RZo-12">
          <mxGeometry y="92" width="230" height="50" as="geometry" />
        </mxCell>
        <mxCell id="nmWa9q8JvF4ApZrv9RZo-30" style="edgeStyle=orthogonalEdgeStyle;rounded=0;orthogonalLoop=1;jettySize=auto;html=1;" edge="1" parent="1" source="nmWa9q8JvF4ApZrv9RZo-15" target="nmWa9q8JvF4ApZrv9RZo-21">
          <mxGeometry relative="1" as="geometry">
            <Array as="points">
              <mxPoint x="620" y="211" />
              <mxPoint x="620" y="211" />
            </Array>
          </mxGeometry>
        </mxCell>
        <mxCell id="nmWa9q8JvF4ApZrv9RZo-15" value="MqttCliente" style="swimlane;fontStyle=1;align=center;verticalAlign=middle;childLayout=stackLayout;horizontal=1;startSize=29;horizontalStack=0;resizeParent=1;resizeParentMax=0;resizeLast=0;collapsible=0;marginBottom=0;html=1;whiteSpace=wrap;" vertex="1" parent="1">
          <mxGeometry x="670" y="120" width="210" height="200" as="geometry" />
        </mxCell>
        <mxCell id="nmWa9q8JvF4ApZrv9RZo-16" value="-app: MqttClient&lt;div&gt;-opciones: MqttConnectionOptions&lt;/div&gt;&lt;div&gt;-broker: String&lt;/div&gt;&lt;div&gt;-idCliente: String&lt;/div&gt;&lt;div&gt;-topico: String&lt;/div&gt;&lt;div&gt;-subQos: int&amp;nbsp;&lt;/div&gt;&lt;div&gt;-pubQos: int&lt;/div&gt;" style="text;html=1;strokeColor=none;fillColor=none;align=center;verticalAlign=middle;spacingLeft=4;spacingRight=4;overflow=hidden;rotatable=0;points=[[0,0.5],[1,0.5]];portConstraint=eastwest;whiteSpace=wrap;" vertex="1" parent="nmWa9q8JvF4ApZrv9RZo-15">
          <mxGeometry y="29" width="210" height="101" as="geometry" />
        </mxCell>
        <mxCell id="nmWa9q8JvF4ApZrv9RZo-17" value="+conectar(): void&lt;div&gt;+suscribir():void&lt;/div&gt;&lt;div&gt;+publicar():void&lt;/div&gt;&lt;div&gt;+desconectar():void&lt;/div&gt;" style="text;html=1;strokeColor=none;fillColor=none;align=left;verticalAlign=middle;spacingLeft=4;spacingRight=4;overflow=hidden;rotatable=0;points=[[0,0.5],[1,0.5]];portConstraint=eastwest;whiteSpace=wrap;" vertex="1" parent="nmWa9q8JvF4ApZrv9RZo-15">
          <mxGeometry y="130" width="210" height="70" as="geometry" />
        </mxCell>
        <mxCell id="nmWa9q8JvF4ApZrv9RZo-31" style="edgeStyle=orthogonalEdgeStyle;rounded=0;orthogonalLoop=1;jettySize=auto;html=1;" edge="1" parent="1" source="nmWa9q8JvF4ApZrv9RZo-18" target="nmWa9q8JvF4ApZrv9RZo-21">
          <mxGeometry relative="1" as="geometry">
            <Array as="points">
              <mxPoint x="390" y="431" />
            </Array>
          </mxGeometry>
        </mxCell>
        <mxCell id="nmWa9q8JvF4ApZrv9RZo-35" style="edgeStyle=orthogonalEdgeStyle;rounded=0;orthogonalLoop=1;jettySize=auto;html=1;entryX=0;entryY=0.5;entryDx=0;entryDy=0;" edge="1" parent="1" source="nmWa9q8JvF4ApZrv9RZo-18" target="nmWa9q8JvF4ApZrv9RZo-32">
          <mxGeometry relative="1" as="geometry" />
        </mxCell>
        <mxCell id="nmWa9q8JvF4ApZrv9RZo-36" value="&lt;font style=&quot;font-size: 8px;&quot;&gt;Empleado no Registrado&lt;/font&gt;" style="edgeLabel;html=1;align=center;verticalAlign=middle;resizable=0;points=[];" vertex="1" connectable="0" parent="nmWa9q8JvF4ApZrv9RZo-35">
          <mxGeometry x="-0.15" y="3" relative="1" as="geometry">
            <mxPoint x="9" y="18" as="offset" />
          </mxGeometry>
        </mxCell>
        <mxCell id="nmWa9q8JvF4ApZrv9RZo-18" value="ManejadorAcceso" style="swimlane;fontStyle=1;align=center;verticalAlign=middle;childLayout=stackLayout;horizontal=1;startSize=29;horizontalStack=0;resizeParent=1;resizeParentMax=0;resizeLast=0;collapsible=0;marginBottom=0;html=1;whiteSpace=wrap;" vertex="1" parent="1">
          <mxGeometry x="510" y="391.5" width="170" height="79" as="geometry" />
        </mxCell>
        <mxCell id="nmWa9q8JvF4ApZrv9RZo-19" value="-empleados:List&amp;lt;Empleado&amp;gt;" style="text;html=1;strokeColor=none;fillColor=none;align=center;verticalAlign=middle;spacingLeft=4;spacingRight=4;overflow=hidden;rotatable=0;points=[[0,0.5],[1,0.5]];portConstraint=eastwest;whiteSpace=wrap;" vertex="1" parent="nmWa9q8JvF4ApZrv9RZo-18">
          <mxGeometry y="29" width="170" height="25" as="geometry" />
        </mxCell>
        <mxCell id="nmWa9q8JvF4ApZrv9RZo-20" value="+validarAcceso(String id):int" style="text;html=1;strokeColor=none;fillColor=none;align=left;verticalAlign=middle;spacingLeft=4;spacingRight=4;overflow=hidden;rotatable=0;points=[[0,0.5],[1,0.5]];portConstraint=eastwest;whiteSpace=wrap;" vertex="1" parent="nmWa9q8JvF4ApZrv9RZo-18">
          <mxGeometry y="54" width="170" height="25" as="geometry" />
        </mxCell>
        <mxCell id="nmWa9q8JvF4ApZrv9RZo-21" value="App" style="swimlane;fontStyle=1;align=center;verticalAlign=middle;childLayout=stackLayout;horizontal=1;startSize=29;horizontalStack=0;resizeParent=1;resizeParentMax=0;resizeLast=0;collapsible=0;marginBottom=0;html=1;whiteSpace=wrap;" vertex="1" parent="1">
          <mxGeometry x="280" y="171" width="140" height="79" as="geometry" />
        </mxCell>
        <mxCell id="nmWa9q8JvF4ApZrv9RZo-22" value="mqttCliente: MqttClient&lt;div&gt;&lt;br&gt;&lt;/div&gt;" style="text;html=1;strokeColor=none;fillColor=none;align=center;verticalAlign=middle;spacingLeft=4;spacingRight=4;overflow=hidden;rotatable=0;points=[[0,0.5],[1,0.5]];portConstraint=eastwest;whiteSpace=wrap;" vertex="1" parent="nmWa9q8JvF4ApZrv9RZo-21">
          <mxGeometry y="29" width="140" height="25" as="geometry" />
        </mxCell>
        <mxCell id="nmWa9q8JvF4ApZrv9RZo-23" value="+main()" style="text;html=1;strokeColor=none;fillColor=none;align=left;verticalAlign=middle;spacingLeft=4;spacingRight=4;overflow=hidden;rotatable=0;points=[[0,0.5],[1,0.5]];portConstraint=eastwest;whiteSpace=wrap;" vertex="1" parent="nmWa9q8JvF4ApZrv9RZo-21">
          <mxGeometry y="54" width="140" height="25" as="geometry" />
        </mxCell>
        <mxCell id="nmWa9q8JvF4ApZrv9RZo-27" style="edgeStyle=orthogonalEdgeStyle;rounded=0;orthogonalLoop=1;jettySize=auto;html=1;" edge="1" parent="1" source="nmWa9q8JvF4ApZrv9RZo-7" target="nmWa9q8JvF4ApZrv9RZo-9">
          <mxGeometry relative="1" as="geometry" />
        </mxCell>
        <mxCell id="nmWa9q8JvF4ApZrv9RZo-32" value="EmpleadoExc" style="swimlane;fontStyle=1;align=center;verticalAlign=middle;childLayout=stackLayout;horizontal=1;startSize=29;horizontalStack=0;resizeParent=1;resizeParentMax=0;resizeLast=0;collapsible=0;marginBottom=0;html=1;whiteSpace=wrap;" vertex="1" parent="1">
          <mxGeometry x="800" y="404" width="140" height="54" as="geometry" />
        </mxCell>
      </root>
    </mxGraphModel>
  </diagram>
</mxfile>
